
<svg version="1.0" xmlns="http://www.w3.org/2000/svg"
 width="210" height="210" viewBox="0 0 900.000000 900.000000"
 preserveAspectRatio="xMidYMid meet">

<g transform="translate(0.000000,600.000000) scale(0.10000,-0.100000)"
fill="#F05A22" stroke="none">
<path d="M8221 5768 c-87 -45 -86 -38 -89 -384 l-3 -304 60 0 61 0 2 188 3
187 78 3 77 3 0 44 0 45 -81 0 -82 0 5 52 c4 38 12 57 28 70 27 22 90 24 130
3 28 -15 30 -14 46 9 36 56 -8 95 -117 102 -64 5 -80 2 -118 -18z"/>
<path d="M7313 5744 c-10 -4 -13 -81 -13 -335 l0 -329 65 0 65 0 0 313 c0 294
-1 315 -19 331 -19 18 -77 29 -98 20z"/>
<path d="M7755 5546 c-17 -7 -36 -20 -44 -30 -12 -15 -15 -14 -37 9 -17 19
-33 25 -64 25 l-40 0 0 -235 0 -235 60 0 60 0 0 164 c0 192 5 204 82 213 37 4
49 2 67 -16 20 -20 21 -31 21 -191 l0 -170 66 0 66 0 -4 193 c-3 217 -12 247
-73 273 -42 17 -120 18 -160 0z"/>
<path d="M8620 5547 c-48 -16 -113 -83 -128 -133 -6 -23 -12 -72 -12 -110 1
-147 84 -233 226 -234 94 0 159 38 198 113 25 50 30 69 30 136 0 98 -29 162
-91 205 -35 24 -53 29 -115 32 -40 2 -89 -2 -108 -9z m119 -88 c38 -13 60 -52
68 -117 14 -121 -54 -206 -138 -172 -97 40 -84 269 16 293 11 3 20 5 21 6 1 0
15 -4 33 -10z"/>
</g>
</svg>
