
<svg version="1.0" xmlns="http://www.w3.org/2000/svg"
 width="180" height="180" viewBox="0 0 1080.000000 1080.000000"
 preserveAspectRatio="xMidYMid meet">

<g transform="translate(0.000000,1080.000000) scale(0.100000,-0.100000)"
fill="#FFFFFF" stroke="none">
<path d="M3078 5784 c-5 -4 -8 -164 -8 -356 l0 -348 65 0 65 0 0 169 0 170 26
20 c31 24 91 28 120 7 17 -13 19 -30 22 -190 l3 -176 65 0 64 0 0 178 c0 194
-7 237 -45 272 -45 43 -169 42 -227 0 l-28 -21 0 119 c0 105 -2 121 -19 136
-21 19 -91 33 -103 20z"/>
<path d="M8221 5768 c-87 -45 -86 -38 -89 -384 l-3 -304 60 0 61 0 2 188 3
187 78 3 77 3 0 44 0 45 -81 0 -82 0 5 52 c4 38 12 57 28 70 27 22 90 24 130
3 28 -15 30 -14 46 9 36 56 -8 95 -117 102 -64 5 -80 2 -118 -18z"/>
<path d="M2058 5738 c-13 -10 -238 -627 -238 -652 0 -3 29 -6 64 -6 l64 0 28
83 29 82 117 3 117 3 27 -86 28 -85 68 0 c37 0 68 2 68 4 0 2 -50 145 -110
318 -74 211 -117 319 -131 331 -25 20 -107 23 -131 5z m152 -390 c0 -5 -40 -8
-90 -8 -49 0 -90 3 -90 7 0 6 57 184 87 273 4 12 93 -247 93 -272z"/>
<path d="M7313 5744 c-10 -4 -13 -81 -13 -335 l0 -329 65 0 65 0 0 313 c0 294
-1 315 -19 331 -19 18 -77 29 -98 20z"/>
<path d="M2742 5560 c-23 -4 -56 -17 -73 -29 -28 -21 -33 -22 -41 -8 -10 19
-70 37 -98 30 -19 -5 -20 -13 -20 -239 l0 -234 65 0 65 0 0 169 0 170 26 20
c27 21 87 28 111 13 25 -16 33 -69 33 -218 l0 -154 65 0 65 0 0 171 c0 184
-10 246 -44 278 -27 25 -96 39 -154 31z"/>
<path d="M3770 5559 c-66 -7 -128 -32 -136 -54 -5 -13 12 -75 21 -75 2 0 22 9
46 20 60 27 142 27 169 0 11 -11 20 -31 20 -45 0 -23 -4 -25 -43 -25 -58 0
-153 -26 -189 -52 -55 -39 -73 -119 -41 -185 33 -70 150 -94 235 -49 l44 23
21 -23 c22 -24 55 -30 100 -18 14 4 20 11 15 18 -4 6 -10 90 -13 186 -6 188
-15 224 -64 256 -31 20 -116 31 -185 23z m120 -309 c0 -52 -3 -62 -24 -75 -25
-17 -95 -23 -116 -10 -6 4 -16 19 -21 33 -22 58 34 111 119 112 l42 0 0 -60z"/>
<path d="M4382 5560 c-23 -4 -56 -17 -73 -29 -28 -21 -33 -22 -41 -8 -10 19
-70 37 -98 30 -19 -5 -20 -13 -20 -239 l0 -234 65 0 65 0 0 169 0 170 26 20
c27 21 87 28 111 13 25 -16 33 -69 33 -218 l0 -154 65 0 65 0 0 171 c0 184
-10 246 -44 278 -27 25 -96 39 -154 31z"/>
<path d="M4847 5559 c-104 -17 -168 -136 -153 -284 9 -86 41 -145 96 -172 57
-30 132 -31 178 -3 18 11 35 20 38 20 10 0 -7 -92 -21 -120 -28 -55 -120 -66
-201 -25 -46 24 -50 24 -62 7 -37 -50 -19 -94 47 -112 62 -17 201 -12 247 9
49 22 88 70 103 126 7 24 11 141 11 293 l0 252 -22 1 c-41 2 -63 -2 -86 -18
-21 -13 -26 -13 -43 3 -23 21 -83 32 -132 23z m129 -105 l34 -16 0 -114 c0
-134 -10 -154 -80 -154 -75 0 -107 58 -98 180 4 61 23 94 63 111 30 12 44 11
81 -7z"/>
<path d="M5995 5560 c-123 -18 -192 -118 -183 -265 6 -88 35 -147 95 -189 37
-26 54 -30 127 -34 156 -8 237 46 177 119 l-18 23 -27 -22 c-38 -29 -103 -38
-150 -18 -28 12 -42 26 -57 61 -11 25 -17 50 -14 55 4 6 66 10 151 10 l144 0
0 48 c-2 149 -99 233 -245 212z m89 -102 c15 -13 29 -38 32 -55 l7 -33 -92 0
c-101 0 -105 4 -75 61 26 51 86 63 128 27z"/>
<path d="M6860 5559 c-62 -7 -126 -33 -134 -55 -5 -13 18 -74 27 -74 2 0 22 9
45 20 54 26 142 27 165 2 10 -10 17 -30 17 -44 0 -24 -3 -25 -71 -32 -88 -8
-163 -39 -191 -79 -30 -42 -31 -125 -2 -164 47 -64 145 -81 226 -40 l46 23 20
-23 c14 -16 32 -23 55 -23 46 0 69 9 60 24 -4 6 -10 92 -13 191 -5 194 -11
215 -65 251 -31 20 -115 31 -185 23z m130 -298 c0 -32 -6 -56 -17 -70 -32 -39
-122 -44 -145 -8 -4 7 -8 26 -8 43 0 50 49 82 128 83 l42 1 0 -49z"/>
<path d="M5293 5552 c-23 -3 -23 -4 -23 -189 0 -150 3 -191 16 -219 36 -75
165 -95 248 -39 l33 22 9 -21 c7 -17 19 -22 67 -24 l58 -3 -3 215 c-3 200 -4
217 -23 235 -19 19 -44 25 -92 22 -23 -1 -23 -2 -23 -170 0 -164 -1 -170 -22
-185 -30 -21 -102 -21 -119 0 -10 12 -15 61 -19 170 -3 88 -10 158 -16 164
-14 14 -64 27 -91 22z"/>
<path d="M6358 5553 c-17 -4 -18 -24 -18 -239 l0 -234 65 0 65 0 0 159 c0 147
2 160 21 186 19 23 28 26 63 23 23 -3 48 -8 57 -12 13 -5 19 1 28 25 25 73 10
99 -60 99 -36 0 -55 -6 -78 -25 l-30 -26 -21 21 c-11 11 -26 20 -34 20 -8 0
-20 2 -28 4 -7 2 -21 2 -30 -1z"/>
<path d="M7755 5546 c-17 -7 -36 -20 -44 -30 -12 -15 -15 -14 -37 9 -17 19
-33 25 -64 25 l-40 0 0 -235 0 -235 60 0 60 0 0 164 c0 192 5 204 82 213 37 4
49 2 67 -16 20 -20 21 -31 21 -191 l0 -170 66 0 66 0 -4 193 c-3 217 -12 247
-73 273 -42 17 -120 18 -160 0z"/>
<path d="M8620 5547 c-48 -16 -113 -83 -128 -133 -6 -23 -12 -72 -12 -110 1
-147 84 -233 226 -234 94 0 159 38 198 113 25 50 30 69 30 136 0 98 -29 162
-91 205 -35 24 -53 29 -115 32 -40 2 -89 -2 -108 -9z m119 -88 c38 -13 60 -52
68 -117 14 -121 -54 -206 -138 -172 -97 40 -84 269 16 293 11 3 20 5 21 6 1 0
15 -4 33 -10z"/>
</g>
</svg>
